<?xml version="1.0" encoding="UTF-8" standalone="no"?><!DOCTYPE svg PUBLIC "-//W3C//DTD SVG 1.1//EN" "http://www.w3.org/Graphics/SVG/1.1/DTD/svg11.dtd"><svg width="100%" height="100%" viewBox="0 0 4961 3508" version="1.1" xmlns="http://www.w3.org/2000/svg" xmlns:xlink="http://www.w3.org/1999/xlink" xml:space="preserve" xmlns:serif="http://www.serif.com/" style="fill-rule:evenodd;clip-rule:evenodd;stroke-linecap:round;stroke-linejoin:round;stroke-miterlimit:1.5;"><path d="M1930.113,2075.112l-608.749,-351.462l-0,-702.923l608.749,-351.462l608.749,351.462l0,1063.615" style="fill:none;stroke:#f4b400;stroke-width:125px;"/><path d="M2538.862,2084.342l639.255,0" style="fill:none;stroke:#f4b400;stroke-width:125px;"/><path d="M3178.117,2084.342l0,386.623l-624.002,360.268l-624.002,-360.268l-0,-813.218l608.749,3.508" style="fill:none;stroke:#f4b400;stroke-width:125px;"/><path d="M1930.113,1352.874l0,383.868" style="fill:none;stroke:#f4b400;stroke-width:125px;"/><g><path d="M3267.234,1609.859c0,0 -43.225,271.259 -291.712,271.259c-248.487,0 -105.867,-246.446 -2.144,-293.917" style="fill:none;stroke:#f4b400;stroke-width:83.33px;"/><path d="M3115.137,1448.75c0,0 -176.265,259.95 -375.136,161.375c-129.755,-64.316 -33.516,-175.663 97.481,-208.743" style="fill:none;stroke:#f4b400;stroke-width:83.33px;"/><path d="M3135.933,1369.507c0,0 -95.685,-243.684 -335.494,-233.408c-239.809,10.276 -83.701,349.624 314.698,291.228" style="fill:none;stroke:#f4b400;stroke-width:83.33px;"/><path d="M3222.414,1303.21c-7.64,-19.462 -22.919,-58.387 2.552,-97.584c31.059,-47.798 71.462,-42.707 91.663,-40.162" style="fill:none;stroke:#f4b400;stroke-width:103.53px;"/><path d="M3010.029,1587.2c0,0 1.833,122.152 190.275,146.959" style="fill:none;stroke:#f4b400;stroke-width:83.33px;"/><path d="M2897.579,1632.44c0,0 -22.77,179.266 180.287,224.89" style="fill:none;stroke:#f4b400;stroke-width:83.33px;"/><path d="M2865.265,1734.159c0,0 36.704,127.46 122.075,123.172c85.371,-4.288 -149.858,-58.293 -149.858,-58.293" style="fill:none;stroke:#f4b400;stroke-width:83.33px;"/><path d="M2826.471,1870.296l95.271,-74.498" style="fill:none;stroke:#f4b400;stroke-width:83.33px;"/><circle cx="3276.512" cy="1448.75" r="161.375" style="fill:none;stroke:#f4b400;stroke-width:83.33px;"/><circle cx="3326.782" cy="1434.078" r="81.204" style="fill:none;stroke:#f4b400;stroke-width:53.71px;"/><path d="M3147.881,1516.386c-33.064,-1.837 -58.416,-30.172 -56.579,-63.236c1.837,-33.064 30.172,-58.416 63.236,-56.579l31.117,1.729c33.064,1.837 58.416,30.172 56.579,63.236c-1.837,33.064 -30.172,58.416 -63.236,56.579l-31.117,-1.729Z" style="fill:#f4b400;"/><path d="M3120.896,1466.714c-4.153,-48.033 -10.642,-59.077 18.187,-104.437c3.056,-11.074 10.862,-30.905 30.199,-50.242c17.832,-17.832 44.713,-28.3 66.786,-34.278c13.032,-4.839 26.877,-7.47 41.304,-7.47l29.351,7.419l11.376,8.105l10.215,12.053l8.767,22.966l0.042,18.653l-4.87,16.071l-9.823,14.873l-11.82,10.118l-21.442,8.665c-0.529,0.102 -3.267,0.718 -8.158,1c-0.621,0.036 -3.918,-0.293 -8.171,-0.06c1.441,0.088 2.952,0.136 4.535,0.136c-4.411,0 -6.791,4.347 -9.608,7.87c-5.542,6.928 -9.702,15.489 -12.743,24.402c-4.889,14.331 -3.944,39.491 -3.732,43.939c7.465,7.502 12.875,13.051 17.968,16.749c3.423,0.342 7.265,0.701 10.794,0.973c14.679,1.134 34.295,2.652 61.787,6.058c32.062,3.972 55.223,32.619 52.392,64.802c-2.831,32.183 -30.636,56.347 -62.899,54.661c-49.35,-2.578 -73.566,-1.908 -96.327,-9.913c-6.402,-1.181 -12.082,-2.609 -17.389,-4.492l-7.881,2.356c-1.723,0.153 -24.994,6.075 -46.884,-16.255c-0.017,-0.003 -0.033,-0.005 -0.05,-0.008l-2.909,-0.119l-4.762,-1.574c-1.398,-0.406 -2.785,-0.864 -4.157,-1.374l-7.397,-2.445l-15.783,-11.356c-27.069,-27.069 -26.377,-49.13 -26.155,-55.631l4.47,-20.935l14.223,-20.933l0.565,-0.347Zm145.234,-195.272c0.717,-0.108 1.392,-0.206 2.022,-0.295c-0.872,0.111 -1.526,0.198 -1.664,0.225c-0.12,0.023 -0.239,0.046 -0.358,0.07Z" style="fill:#f4b400;"/></g></svg>
